<svg xmlns="http://www.w3.org/2000/svg" viewBox="0 0 42.04 42.09"><defs><style>.cls-1{fill:#033b73;}</style></defs><g id="Layer_2" data-name="Layer 2"><g id="Layer_1-2" data-name="Layer 1"><path class="cls-1" d="M10.38,0C21.55.19,19.92-1.42,20,9.9,20.09,20,20,20.1,9.67,20-1.5,20,.12,21.5,0,10.19,0,0,0,0,10.38,0Z"/><path class="cls-1" d="M20,31.79C19.84,43.72,21.7,42,9.78,42-1.46,42,.12,43.54,0,32.3,0,22.05,0,22,10.26,22.06,21.51,22.14,19.88,20.55,20,31.79Z"/><path class="cls-1" d="M42,32.31C41.88,43.53,43.5,42,32.26,42c-11.91,0-10.18,1.71-10.2-10.22,0-11.23-1.51-9.73,9.73-9.71C43.7,22.1,41.85,20.38,42,32.31Zm-5.1-7.84c-3.62.52-12.22,9.25-12.4,12.39Zm2.69,2.46-13,12.68C30.43,39.32,39.16,30.68,39.62,26.93Z"/><path class="cls-1" d="M42,9.78C41.85,21.71,43.7,20,31.79,20,20.55,20,22,21.53,22.06,10.3,22.08-1.63,20.35.1,32.27.08,43.5.06,41.88-1.44,42,9.78Zm-2.24,8.07V2.32H24.35V17.85Z"/></g></g></svg>