<svg xmlns="http://www.w3.org/2000/svg" viewBox="0 0 66.04 66.04"><defs><style>.cls-1{fill:#033b73;}</style></defs><g id="Layer_2" data-name="Layer 2"><g id="Layer_1-2" data-name="Layer 1"><path class="cls-1" d="M0,15.2C0,0,0,0,15,0S30,0,30,15.11,30,30,15.32,30c-2.67,0-5.33.05-8,0C2.17,29.88.17,27.87,0,22.69,0,20.2,0,17.7,0,15.2Z"/><path class="cls-1" d="M30,51.07c0,15,0,15-15.16,15C0,66,0,66,0,51.25c0-2.66-.06-5.33,0-8,.14-5.08,2.21-7.12,7.4-7.2,4.82-.08,9.65-.06,14.47,0,6.09.06,8,2,8.11,8C30.05,46.41,30,48.74,30,51.07ZM5.42,59.21l1.41,1.42c2-.83,4-1.81,6.13-2.44A7.42,7.42,0,0,1,16.89,58a62,62,0,0,1,6.43,2.58L24.7,59A54.74,54.74,0,0,1,22,52.92,7.08,7.08,0,0,1,22.16,49c.63-2.1,1.63-4.09,2.47-6.13l-1.41-1.43c-2,.83-4,1.8-6.14,2.43a7.38,7.38,0,0,1-3.92.19,62.21,62.21,0,0,1-6.44-2.58L5.34,43.06A52.27,52.27,0,0,1,8,49.16a7.09,7.09,0,0,1-.14,3.92C7.25,55.18,6.26,57.17,5.42,59.21Z"/><path class="cls-1" d="M50.94,36C66,36,66,36,66,51.07s0,15-15.17,15C36,66,36,66,36,51.24c0-2.16,0-4.33,0-6.49,0-7,1.78-8.68,8.93-8.71ZM42,50.75C42,58.22,43.66,60,50.49,60c7.66,0,9.53-1.7,9.53-8.72C60,43.85,58.38,42,51.55,42,43.9,42,42,43.74,42,50.75Z"/><path class="cls-1" d="M66,15.12C66,30,66,30,51.31,30c-3,0-6,.09-9-.05-3.94-.18-6.18-2.36-6.26-6.31-.12-5.82-.15-11.65,0-17.46.11-4,2.47-6.07,6.4-6.15,5.33-.1,10.65-.09,16,0S65.9,2.18,66,7.63C66.06,10.12,66,12.62,66,15.12Zm-6.33,8.67V6.41H42.26V23.79Z"/><path class="cls-1" d="M48.24,48.22h5.47v5.55H48.24Z"/></g></g></svg>