 <svg
          width="80"
          height="80"
          xmlns="http://www.w3.org/2000/svg"
          viewBox="0 0 64 64"
        >
          <rect width="12" height="8" x="21" y="6" fill="#787680"></rect>
          <path
            fill="#e6e7e8"
            d="M43,45.88V61H3V45.88a7.985,7.985,0,0,1,5.61-7.63L19,35h8l10.39,3.25A7.985,7.985,0,0,1,43,45.88Z"
          ></path>
          <polygon
            fill="#898890"
            points="24 43 26 61 20 61 22 43 24 43"
          ></polygon>
          <polygon
            fill="#898890"
            points="25.95 39.11 24 43 22 43 20.05 39.11 23 37 25.95 39.11"
          ></polygon>
          <polygon
            fill="#bcbec0"
            points="30 35.94 30 42 25.95 39.11 23 37 27 35 30 35.94"
          ></polygon>
          <polygon
            fill="#bcbec0"
            points="23 37 20.05 39.11 16 42 16 35.94 19 35 23 37"
          ></polygon>
          <polygon
            fill="#ffc477"
            points="27 28.16 27 35 23 37 19 35 19 28.16 27 28.16"
          ></polygon>
          <path fill="#ffb655" d="M34,15a3,3,0,0,1,0,6H32V15Z"></path>
          <path fill="#ffb655" d="M14,15v6H12a3,3,0,0,1,0-6Z"></path>
          <path fill="#ffb655" d="M27,28.16v4a9.944,9.944,0,0,1-8,0v-4Z"></path>
          <path
            fill="#ffc477"
            d="M33,15v6a10,10,0,0,1-20,0V13a2.006,2.006,0,0,1,2-2H31a2.006,2.006,0,0,1,2,2v2Z"
          ></path>
          <path
            fill="#57565c"
            d="M15,11a2.006,2.006,0,0,0-2,2V9a6,6,0,0,1,6-6H29V5a5.361,5.361,0,0,1-.09.99A6,6,0,0,1,23,11H15Z"
          ></path>
          <circle cx="12" cy="49" r="3" fill="#e6e7e8"></circle>
          <rect
            width="18"
            height="21"
            x="42"
            y="40"
            fill="#5aaae7"
            rx="2"
          ></rect>
          <path
            fill="#ff9811"
            d="M56,39v4H46V39a2.006,2.006,0,0,1,2-2h6A2.006,2.006,0,0,1,56,39Z"
          ></path>
          <path
            fill="#3d9ae2"
            d="M57,52v2a1,1,0,0,1-1,1H54v2a1,1,0,0,1-1,1H51a1,1,0,0,1-1-1V55H48a1,1,0,0,1-1-1V52a1,1,0,0,1,1-1h2V49a1,1,0,0,1,1-1h2a1,1,0,0,1,1,1v2h2A1,1,0,0,1,57,52Z"
          ></path>
          <path
            fill="#e6e7e8"
            d="M56,51v2a1,1,0,0,1-1,1H53v2a1,1,0,0,1-1,1H50a1,1,0,0,1-1-1V54H47a1,1,0,0,1-1-1V51a1,1,0,0,1,1-1h2V48a1,1,0,0,1,1-1h2a1,1,0,0,1,1,1v2h2A1,1,0,0,1,56,51Z"
          ></path>
          <path
            fill="#d8d7da"
            d="M13,46H11V37a5.006,5.006,0,0,1,5-5h3v2H16a3,3,0,0,0-3,3Z"
          ></path>
          <path
            fill="#d8d7da"
            d="M35,44H33V37a3,3,0,0,0-3-3H27V32h3a5.006,5.006,0,0,1,5,5Z"
          ></path>
          <rect width="2" height="7" x="10" y="54" fill="#d8d7da"></rect>
          <rect width="2" height="7" x="34" y="54" fill="#d8d7da"></rect>
          <path
            fill="#ee8700"
            d="M19,20a2,2,0,1,1,2-2A2,2,0,0,1,19,20Zm0-2h0Z"
          ></path>
          <path
            fill="#ee8700"
            d="M27,20a2,2,0,1,1,2-2A2,2,0,0,1,27,20Zm0-2h0Z"
          ></path>
          <path
            fill="#ee8700"
            d="M23,26a5,5,0,0,1-3.308-1.25l1.325-1.5a3.074,3.074,0,0,0,3.966,0l1.325,1.5A5,5,0,0,1,23,26Z"
          ></path>
          <path
            fill="#c6c5ca"
            d="M12,53a4,4,0,1,1,4-4A4,4,0,0,1,12,53Zm0-6a2,2,0,1,0,2,2A2,2,0,0,0,12,47Z"
          ></path>
          <path
            fill="#c6c5ca"
            d="M39,53H37V51h1V48a3,3,0,0,0-3-3H33a3,3,0,0,0-3,3v3h1v2H29a1,1,0,0,1-1-1V48a5.006,5.006,0,0,1,5-5h2a5.006,5.006,0,0,1,5,5v4A1,1,0,0,1,39,53Z"
          ></path>
        </svg>