<svg xmlns="http://www.w3.org/2000/svg" viewBox="0 0 64 64"><path fill="#3d9ae2" d="M46.39,38.25,39.52,36.1,36,35v3l-4,8-4-8V35l-3.52,1.1-6.87,2.15A7.985,7.985,0,0,0,12,45.88V61H52V45.88A7.985,7.985,0,0,0,46.39,38.25Z"></path><polygon fill="#ffc477" points="36 30 36 38 32 46 28 38 28 30 36 30"></polygon><path fill="#ffb655" d="M46,18a3,3,0,0,1-3,3H41V15h2A3,3,0,0,1,46,18Z"></path><path fill="#ffb655" d="M23,15v6H21a3,3,0,0,1,0-6Z"></path><path fill="#57565c" d="M46,3V4a8.983,8.983,0,0,1-4,7.48A8.94,8.94,0,0,1,37,13a9,9,0,0,1-8.5-6.06A9.032,9.032,0,0,1,22,12.77V9a6,6,0,0,1,6-6Z"></path><path fill="#ffb655" d="M36,30v2.16a9.926,9.926,0,0,1-4.72.81,9.655,9.655,0,0,1-3.27-.82H28V30Z"></path><path fill="#ffc477" d="M37,13a9,9,0,0,1-8.5-6.06A9.032,9.032,0,0,1,22,12.77v7.92c0,.1,0,.21.01.31a10.362,10.362,0,0,0,6,9.15,9.655,9.655,0,0,0,3.27.82A9.926,9.926,0,0,0,36,30.16a9.782,9.782,0,0,0,3.07-2.09A9.969,9.969,0,0,0,42,21V11.48A8.94,8.94,0,0,1,37,13Z"></path><path fill="#1e81ce" d="M39.52,36.1A4.005,4.005,0,0,0,36,34v8a2,2,0,0,1,4,0V38A4.026,4.026,0,0,0,39.52,36.1Z"></path><path fill="#1e81ce" d="M24.48,36.1A4.026,4.026,0,0,0,24,38v4a2,2,0,0,1,4,0V34A4.005,4.005,0,0,0,24.48,36.1Z"></path><path fill="#ee8700" d="M28,20a2,2,0,1,1,2-2A2,2,0,0,1,28,20Zm0-2v0Z"></path><path fill="#ee8700" d="M36,20a2,2,0,1,1,2-2A2,2,0,0,1,36,20Zm0-2v0Z"></path><path fill="#ee8700" d="M32,27a5.006,5.006,0,0,1-5-5h2a3,3,0,0,0,6,0h2A5.006,5.006,0,0,1,32,27Z"></path><rect width="2" height="14" x="19" y="47" fill="#1e81ce"></rect><rect width="2" height="14" x="43" y="47" fill="#1e81ce"></rect></svg>