<svg xmlns="http://www.w3.org/2000/svg" viewBox="0 0 59 68.24"><defs><style>.cls-1{fill:#4e4a7a;}.cls-2{fill:#94cefd;}.cls-3{fill:#db7d36;}.cls-4{fill:#f6b64f;}.cls-5{fill:#ec8431;}</style></defs><g id="Layer_2" data-name="Layer 2"><g id="Layer_1-2" data-name="Layer 1"><path class="cls-1" d="M11.8,53.63C-3,38.2-3.82,20.85,9,8.36a29.61,29.61,0,0,1,41.44.19c10.22,10,13.76,29.87-3,44.83,1.64,2.18,3.64,4.3,5,6.79a12.75,12.75,0,0,1,1.4,6.4c0,.63-3,1.55-4.58,1.57q-19.76.19-39.49,0c-1.54,0-4.23-1-4.35-1.89a10.26,10.26,0,0,1,1.35-5.95C8,57.93,10,55.94,11.8,53.63Zm1.72,2.92-2,3.93L6.76,64.77H51.12l.44-1.09-4-3.2-2-3.93L44,52.5c1.14-1.17,2.22-2.41,3.43-3.51,13.5-12.26,10.44-34.83-5.8-42.64a25.92,25.92,0,0,0-33.7,8C.41,24.84,2.08,40.24,11.66,49c1.22,1.11,2.34,2.33,3.5,3.5Z"/><path class="cls-2" d="M15.16,52.5c-1.16-1.17-2.28-2.39-3.5-3.5C2.08,40.24.41,24.84,7.92,14.35a25.92,25.92,0,0,1,33.7-8c.41,1.25.72,2.53,1.24,3.73,4.71,11,3.2,21.35-3.64,31-4.34,6.13-11,8.72-17.7,11.28ZM28.72,8.15C15.44,6.88,6.07,16.4,8.27,30.15,10.72,17.57,17.48,10.7,28.72,8.15Zm5.36,10.51,3.2.53L32,22,35.7,26l-3.11-3.13,6.54-2.47-.91,2.71Z"/><path class="cls-3" d="M47.57,60.48l4,3.2-.44,1.09H6.76l4.75-4.28Z"/><path class="cls-4" d="M47.57,60.48H11.51l2-3.94H45.57Z"/><path class="cls-5" d="M45.57,56.55h-32l1.64-4,6.36-.14L44,52.5Z"/></g></g></svg>